<?xml version="1.0" encoding="UTF-8"?>
<svg version="1.1" xmlns="http://www.w3.org/2000/svg" width="1254" height="1254">
<path d="M0 0 C413.82 0 827.64 0 1254 0 C1254 413.82 1254 827.64 1254 1254 C840.18 1254 426.36 1254 0 1254 C0 840.18 0 426.36 0 0 Z " fill="#FDFDFD" transform="translate(0,0)"/>
<path d="M0 0 C0.80373047 -0.020625 1.60746094 -0.04125 2.43554688 -0.0625 C11.9200915 -0.12354293 18.88250112 2.41895213 25.734375 9.03125 C31.31758512 15.3737767 32.57657741 22.05811314 32.33203125 30.41796875 C30.56049767 40.9505411 24.36499685 50.95791965 16.6875 58.25 C15.92179687 59.03503906 15.15609375 59.82007813 14.3671875 60.62890625 C4.66599717 70.11290575 -7.0452493 77.14048812 -20.3125 80.25 C-20.3125 74.97 -20.3125 69.69 -20.3125 64.25 C-17.1259375 62.4865625 -17.1259375 62.4865625 -13.875 60.6875 C-1.97079588 53.93504013 9.49122343 45.69439064 14.375 32.375 C14.88083492 28.93532257 15.30028571 25.68159995 14.6875 22.25 C11.98269518 18.71872704 10.00444219 17.05539966 5.6875 16.25 C-13.98916651 13.92388245 -34.01014278 25.02686442 -49.04296875 36.5390625 C-51.40146366 38.41664501 -53.51508523 40.42239095 -55.61328125 42.5859375 C-58.3125 45.25 -58.3125 45.25 -60.3125 45.25 C-60.3125 46.24 -60.3125 47.23 -60.3125 48.25 C-50.91396755 51.13889317 -42.14263357 53.48453878 -32.3125 54.25 C-31.49184931 56.12144695 -30.6813416 57.99734336 -29.875 59.875 C-29.42253906 60.91914063 -28.97007812 61.96328125 -28.50390625 63.0390625 C-22.16273323 80.12904355 -25.62281589 102.3145285 -32.99755859 118.48803711 C-38.26849968 129.39577856 -45.45166186 137.94650898 -54.5859375 145.87890625 C-57.67797684 148.56782872 -60.68463074 151.33747772 -63.6875 154.125 C-64.79796398 155.15257409 -65.90864134 156.17991764 -67.01953125 157.20703125 C-67.56818848 157.71443848 -68.1168457 158.2218457 -68.68212891 158.74462891 C-72.22241301 162.01348063 -75.77778695 165.26587715 -79.33203125 168.51953125 C-81.37393328 170.38885919 -83.41263497 172.26159841 -85.44921875 174.13671875 C-90.36341612 178.6583324 -95.29781158 183.1479195 -100.33984375 187.52734375 C-107.21770611 193.53355622 -113.92427361 199.72765476 -120.62011719 205.93481445 C-123.62395172 208.71304868 -126.65386656 211.44918295 -129.75 214.125 C-130.36488281 214.66511719 -130.97976563 215.20523438 -131.61328125 215.76171875 C-132.70268494 216.71588612 -133.80344541 217.6573294 -134.91796875 218.58203125 C-139.27087646 222.46495921 -141.42007336 227.07933474 -143.8203125 232.34765625 C-147.38715479 239.28525788 -152.24638684 243.08025577 -159.3125 246.25 C-163.36776037 247.03281453 -167.28989413 247.0203303 -171.41015625 246.94921875 C-172.57264389 246.95463181 -173.73513153 246.96004486 -174.93284607 246.96562195 C-177.43844879 246.97535576 -179.94412707 246.97239589 -182.44970703 246.95794678 C-188.50363684 246.92641197 -194.55661274 246.97885145 -200.6102562 247.03269958 C-202.00235045 247.04479452 -203.39445377 247.0558861 -204.78656387 247.06599426 C-219.48396297 247.17395208 -234.13782468 247.79953148 -248.8125 248.625 C-249.99949493 248.69135651 -251.18648987 248.75771301 -252.40945435 248.82608032 C-259.32201164 249.21672839 -266.23311512 249.62829431 -273.14355469 250.0546875 C-276.14502589 250.23967802 -279.14669308 250.42106813 -282.1484375 250.6015625 C-307.63777409 252.14644279 -333.06568255 254.28846614 -358.49414062 256.62451172 C-359.67780716 256.73192184 -360.86147369 256.83933197 -362.08100891 256.94999695 C-364.29616229 257.15127063 -366.51102341 257.35579959 -368.72550964 257.56428528 C-374.61757051 258.09756506 -380.3962152 258.34712673 -386.3125 258.25 C-384.06435125 256.00185125 -383.39079866 255.89948358 -380.359375 255.42578125 C-379.52905762 255.28817383 -378.69874023 255.15056641 -377.84326172 255.00878906 C-376.46678467 254.78787598 -376.46678467 254.78787598 -375.0625 254.5625 C-366.02272645 253.01470635 -357.10931527 251.12187489 -348.1875 249 C-345.6198438 248.39170569 -343.05215392 247.78355701 -340.484375 247.17578125 C-339.49762283 246.94202789 -339.49762283 246.94202789 -338.49093628 246.70355225 C-307.08303947 239.27953177 -275.39518726 232.03538476 -243.3125 228.25 C-242.6490155 228.16965515 -241.98553101 228.0893103 -241.30194092 228.00653076 C-216.55162655 225.01236861 -192.24007577 223.65735464 -167.3125 224.25 C-167.3125 223.59 -167.3125 222.93 -167.3125 222.25 C-168.3025 221.92 -169.2925 221.59 -170.3125 221.25 C-171.75 219.82421875 -171.75 219.82421875 -173.3125 217.9375 C-176.34878778 214.35032456 -179.48797525 210.87863393 -182.6875 207.4375 C-186.14142954 203.70465995 -189.44823892 199.91288816 -192.625 195.9375 C-196.88123977 190.64203473 -201.48347186 185.73797075 -206.15063477 180.80859375 C-210.38967094 176.30716566 -214.31248626 171.63232243 -218.16796875 166.796875 C-220.43952831 164.09913942 -222.853201 161.65189842 -225.375 159.1875 C-233.21052042 151.49866639 -240.35260888 144.36760459 -240.875 132.875 C-240.76438736 127.42548384 -239.18896306 124.91253401 -235.37109375 121.1484375 C-234.69175781 120.52195312 -234.01242187 119.89546875 -233.3125 119.25 C-231.99873672 117.89705889 -230.686243 116.54288386 -229.375 115.1875 C-226.11628727 111.96653298 -222.7194777 108.95073521 -219.24609375 105.96484375 C-217.35755403 104.28995701 -215.58094352 102.55052413 -213.8125 100.75 C-210.91250647 97.8045927 -207.87623569 95.09536291 -204.74609375 92.3984375 C-201.54655065 89.57380073 -198.43191543 86.6625511 -195.3125 83.75 C-191.10150215 79.82061711 -186.86272449 75.94846939 -182.5 72.1875 C-179.38638655 69.42972809 -176.35349292 66.58738519 -173.3125 63.75 C-169.07863693 59.7999094 -164.8191042 55.90300706 -160.43359375 52.12109375 C-157.51451629 49.54606962 -154.66632647 46.89692203 -151.8125 44.25 C-147.68162795 40.41998236 -143.53421244 36.62466513 -139.25390625 32.9609375 C-137.81199564 31.69019938 -136.40861146 30.37546853 -135.02734375 29.0390625 C-124.2076644 18.71664258 -111.66524609 13.1913601 -96.6875 12.9375 C-85.38233611 13.21128803 -74.12933543 15.83196556 -64.8125 22.625 C-62.54178403 24.47636603 -62.54178403 24.47636603 -60.4296875 24.04296875 C-57.90201067 23.09625584 -56.09874505 21.80658972 -53.9375 20.1875 C-37.797085 8.69890766 -20.07704307 0.12696944 0 0 Z " fill="#F8701C" transform="translate(1053.3125,426.75)"/>
<path d="M0 0 C1.2159082 0.20931152 2.43181641 0.41862305 3.68457031 0.63427734 C19.75742586 3.40639688 35.54718885 6.7105437 51 12 C51.9497168 12.31807617 52.89943359 12.63615234 53.87792969 12.96386719 C81.42159597 22.24498098 107.57106849 34.98624577 133 49 C131.52454085 52.4043146 129.65023778 54.7237856 127 57.3125 C126.29875 58.03050781 125.5975 58.74851562 124.875 59.48828125 C117.6413616 63.2918384 107.71702273 58.98190763 100.40625 56.71875 C99.31346237 56.38913773 98.22067474 56.05952545 97.09477234 55.71992493 C94.76498717 55.01685781 92.43633047 54.31004189 90.10873413 53.59976196 C84.02341281 51.74525989 77.9277154 49.92556624 71.83203125 48.10546875 C70.63097244 47.74643967 69.42991364 47.38741058 68.19245911 47.01750183 C45.43971256 40.236398 22.46395673 33.80518636 -1 30 C-1.74203674 29.87611908 -2.48407349 29.75223816 -3.24859619 29.62460327 C-17.24053288 27.33371775 -30.95958387 26.49736394 -45.13085938 26.55395508 C-48.36653186 26.5624777 -51.60043673 26.53352496 -54.8359375 26.50195312 C-114.33372109 26.30262679 -175.04378939 52.42399271 -218.51171875 92.8203125 C-220 94 -220 94 -222 94 C-222 94.66 -222 95.32 -222 96 C-220.89527344 95.99476318 -219.79054688 95.98952637 -218.65234375 95.98413086 C-187.62361746 95.85090409 -156.76955626 95.98116665 -125.85424805 98.91552734 C-118.6747352 99.59643811 -111.52229625 100.19079216 -104.3125 100.4375 C-79.91597238 101.39306869 -55.5455153 104.70543232 -31.45497131 108.53044128 C-24.1089793 109.69608339 -16.7613943 110.69272641 -9.375 111.5625 C-1.25596654 112.53359328 6.81215585 113.69899548 14.875 115.0625 C15.86322754 115.22500244 16.85145508 115.38750488 17.86962891 115.55493164 C18.77632324 115.71340576 19.68301758 115.87187988 20.6171875 116.03515625 C21.41753418 116.1731665 22.21788086 116.31117676 23.04248047 116.45336914 C25 117 25 117 27 119 C26.44444444 123.55555556 26.44444444 123.55555556 25 125 C22.83862137 125.10552798 20.67370864 125.13860103 18.50976562 125.14526367 C17.82051656 125.14857697 17.13126749 125.15189026 16.42113209 125.15530396 C14.08282238 125.16483828 11.74457796 125.16664573 9.40625 125.16796875 C7.72413593 125.171884 6.04202227 125.17598328 4.35990906 125.18025208 C-0.27917488 125.18967467 -4.91822396 125.19042181 -9.55731583 125.18847656 C-12.50845773 125.18749719 -15.45959435 125.18848322 -18.41073608 125.18969727 C-51.35100079 125.19469647 -84.2734574 124.71726171 -117.20669556 124.0707283 C-213.63709452 121.79361075 -213.63709452 121.79361075 -310 125 C-310.77261169 125.05091797 -311.54522339 125.10183594 -312.34124756 125.15429688 C-328.89308191 126.27186952 -345.32568604 128.19160382 -361.75 130.5 C-362.47757507 130.60164459 -363.20515015 130.70328918 -363.95477295 130.80801392 C-373.08437439 132.09861243 -382.05257173 133.74268387 -391 136 C-392.12921875 136.28343262 -393.2584375 136.56686523 -394.421875 136.85888672 C-409.81764578 140.80383963 -424.63243429 145.16803487 -439 152 C-439.69867188 152.32468262 -440.39734375 152.64936523 -441.1171875 152.98388672 C-456.44617163 160.13907471 -470.0074695 169.1876622 -483 180 C-483.60457031 180.47695313 -484.20914063 180.95390625 -484.83203125 181.4453125 C-490.65204433 189.19235332 -487.27184364 208.12344103 -486.1875 217.25 C-484.84379387 230.46704801 -484.84379387 230.46704801 -481 243 C-480.87994547 244.49649362 -480.82468549 245.99874793 -480.8125 247.5 C-480.79832031 248.2940625 -480.78414062 249.088125 -480.76953125 249.90625 C-481 252 -481 252 -483 254 C-486.1875 254.75 -486.1875 254.75 -490 254 C-495.44422224 248.01329851 -499.07990884 240.45346418 -502.5 233.1875 C-502.96776855 232.20064209 -503.43553711 231.21378418 -503.91748047 230.19702148 C-511.7706093 213.23237089 -519.04864474 194.06006893 -516 175 C-514.30791683 171.21800846 -512.00619189 168.80503406 -509 166 C-508.34773437 165.29101562 -507.69546875 164.58203125 -507.0234375 163.8515625 C-485.16838497 140.52313564 -454.24361485 124.58277542 -423.97045898 115.60766602 C-421.88536701 114.96464855 -419.82814523 114.25880033 -417.765625 113.546875 C-412.27524826 111.70189736 -406.68386493 110.32073077 -401.0625 108.9375 C-400.04220703 108.68162109 -399.02191406 108.42574219 -397.97070312 108.16210938 C-388.3143784 105.76497452 -378.66212753 103.84062825 -368.8125 102.4375 C-367.90628906 102.30746582 -367.00007812 102.17743164 -366.06640625 102.04345703 C-359.38919942 101.118032 -352.76685594 100.52951346 -346.03125 100.2109375 C-343.13643489 100.08527337 -343.13643489 100.08527337 -340.89916992 99.53173828 C-336.81241177 98.78218382 -332.72475027 98.55193564 -328.58203125 98.28125 C-327.19880173 98.18813538 -327.19880173 98.18813538 -325.78762817 98.09313965 C-323.81619282 97.96127659 -321.84465127 97.8309933 -319.87301636 97.70214844 C-316.79897504 97.49910667 -313.72580919 97.28537747 -310.65258789 97.0703125 C-300.79291384 96.39609656 -291.03579048 95.92356672 -281.15234375 95.99365234 C-269.40381647 96.03280955 -269.40381647 96.03280955 -259.8125 89.875 C-258.08866002 87.98109236 -256.56237134 86.03836261 -255 84 C-253.83416454 82.77075089 -252.64934191 81.55891929 -251.4375 80.375 C-250.89867187 79.8284375 -250.35984375 79.281875 -249.8046875 78.71875 C-246.28162951 75.36345668 -242.44943416 72.37687193 -238.65429688 69.33789062 C-236.85444521 67.8822845 -235.07499151 66.40394333 -233.296875 64.921875 C-195.03190283 33.14862199 -150.60434641 11.44310254 -102 1 C-100.99001953 0.7740918 -99.98003906 0.54818359 -98.93945312 0.31542969 C-67.71281184 -6.40252916 -31.36291742 -5.71935821 0 0 Z " fill="#0F1118" transform="translate(729,437)"/>
<path d="M0 0 C3.46837053 2.86827123 6.74636505 5.89221765 10 9 C10.60328125 9.52851562 11.2065625 10.05703125 11.828125 10.6015625 C25.01899409 22.62127966 33.97218495 41.61169072 37 59 C37 59.99 37 60.98 37 62 C64.40785006 61.54967272 91.57451936 58.27005545 118.6015625 53.83203125 C122.15740651 53.25289325 125.68440367 52.82172374 129.2734375 52.51171875 C133.37405811 52.13660747 137.05570606 51.21291668 141 50 C143.41094295 49.51245376 145.82824635 49.05564657 148.25 48.625 C172.84808704 44.13459939 197.24275018 38.50203487 221.31445312 31.74560547 C224.03322653 30.99077511 226.75733059 30.25949718 229.484375 29.53515625 C242.46037379 26.08064168 255.23553445 22.16313379 268 18 C273.08306223 16.34504951 278.16717672 14.69335617 283.25183105 13.04330444 C285.43462599 12.3337509 287.61629789 11.62082986 289.79785156 10.9074707 C298.48175227 8.07720395 307.20321303 5.46208399 316 3 C318.05639804 2.40766621 320.11240042 1.81395673 322.16796875 1.21875 C339.35051585 -3.71163723 356.33226172 -7.53308488 374 -10.25 C375.12196777 -10.4255542 376.24393555 -10.6011084 377.39990234 -10.78198242 C395.81666434 -13.49129517 395.81666434 -13.49129517 400.25219727 -10.46166992 C402.38518785 -8.44101517 404.17720546 -6.30476606 406 -4 C407.11181641 -2.64648438 407.11181641 -2.64648438 408.24609375 -1.265625 C409.78643112 0.61498926 411.31776333 2.50301659 412.83984375 4.3984375 C415.18279082 7.22014229 417.67297074 9.76860401 420.30859375 12.3125 C422.82277739 14.82087721 425.10906541 17.51396242 427.421875 20.20703125 C428.69651758 21.65520191 430.05573144 23.02866141 431.4375 24.375 C433 26 433 26 433 28 C431.96520508 28.01458252 430.93041016 28.02916504 429.86425781 28.04418945 C399.46331706 28.50465212 370.02927083 31.04813067 340 36 C338.26953423 36.27606034 336.53906562 36.5521029 334.80859375 36.828125 C308.44278478 41.13965712 282.17897044 46.72431009 256.19042969 52.8996582 C245.35333333 55.44596844 234.4235046 57.4994117 223.48828125 59.5703125 C217.98839108 60.61227981 212.50273162 61.70737141 207.02124023 62.84155273 C157.45775439 73.04002436 107.64980562 80.08803537 57 80.25 C55.96554749 80.2554483 54.93109497 80.26089661 53.86529541 80.26651001 C39.83566409 80.32156479 25.91768201 79.90396716 12 78 C10.20052804 76.20052804 10.69059351 73.68725857 10.50732422 71.27368164 C9.30220931 56.43627066 4.75691004 44.51908961 -5 33 C-5.61617188 32.27167969 -6.23234375 31.54335938 -6.8671875 30.79296875 C-16.40861522 20.43992581 -30.67795176 13.57353334 -44.72265625 12.5546875 C-62.30359903 11.86775349 -76.07231869 17.76008138 -90.1640625 27.984375 C-92.2821717 29.48980798 -94.4037125 30.92208165 -96.5859375 32.328125 C-106.88446318 39.04209518 -115.63165791 46.82852832 -124.3527832 55.47875977 C-126 57 -126 57 -129 59 C-130.42743934 41.96589051 -122.78050782 26.04961816 -112.4375 12.875 C-83.69327635 -19.9879284 -35.54245473 -26.05751813 0 0 Z " fill="#0E1018" transform="translate(418,606)"/>
<path d="M0 0 C1.50530273 -0.04350586 1.50530273 -0.04350586 3.04101562 -0.08789062 C14.15993183 -0.18193481 21.65472951 3.98989431 29.8125 11.3125 C38.54648431 19.90866996 42.03515298 28.21213135 42.1875 40.3125 C42.23518787 52.58340266 38.55548102 62.46396991 29.8125 71.3125 C20.71818919 78.88262464 11.03304412 81.999779 -0.6875 81.8125 C-2.13962891 81.83570313 -2.13962891 81.83570313 -3.62109375 81.859375 C-14.65548561 81.80012994 -23.19998606 77.82492017 -31.1875 70.3125 C-39.99147111 60.95175602 -43.6286873 50.29625759 -43.45703125 37.5625 C-42.54177664 26.5263864 -37.22773831 16.94303222 -29.171875 9.43359375 C-19.84479712 2.10779833 -11.64756783 0.11009043 0 0 Z " fill="#10121A" transform="translate(522.1875,738.6875)"/>
<path d="M0 0 C0.98547821 -0.01929062 1.97095642 -0.03858124 2.98629761 -0.05845642 C7.53754172 -0.11624533 12.08862256 -0.16556913 16.64013672 -0.19628906 C19.03188599 -0.21777668 21.42355862 -0.25176786 23.81494141 -0.29882812 C27.27167746 -0.36624503 30.72677877 -0.3933673 34.18408203 -0.41235352 C35.23973358 -0.44018417 36.29538513 -0.46801483 37.38302612 -0.49668884 C45.25468632 -0.47521395 50.96594771 1.60952635 57.37939453 6.20874023 C61.68750677 10.74889241 62.74544374 15.79359434 62.65673828 21.86499023 C62.02335956 27.21748645 59.14634613 30.7480134 55.12939453 34.14624023 C54.22189453 34.82686523 53.31439453 35.50749023 52.37939453 36.20874023 C53.05486328 36.60963867 53.73033203 37.01053711 54.42626953 37.42358398 C60.73334292 41.44297613 64.57388119 44.80741603 66.37939453 52.20874023 C67.28562667 57.85936418 66.26280856 63.28757777 63.37939453 68.20874023 C57.73381806 74.67124767 50.78665775 77.2881765 42.37939453 78.20874023 C38.73558565 78.3461371 35.0957835 78.34901682 31.44970703 78.34155273 C30.41876923 78.34250946 29.38783142 78.34346619 28.32565308 78.3444519 C26.15899596 78.34512961 23.99233676 78.34330402 21.82568359 78.33911133 C18.4945833 78.33372437 15.16361584 78.33908696 11.83251953 78.34545898 C9.7257484 78.34479877 7.61897735 78.3435188 5.51220703 78.34155273 C4.01078659 78.34458908 4.01078659 78.34458908 2.47903442 78.34768677 C1.56072845 78.34453461 0.64242249 78.34138245 -0.30371094 78.33813477 C-1.11532684 78.33733917 -1.92694275 78.33654358 -2.76315308 78.33572388 C-4.62060547 78.20874023 -4.62060547 78.20874023 -5.62060547 77.20874023 C-5.72086242 74.84112448 -5.75679482 72.5026695 -5.75 70.13452148 C-5.75175232 69.39471039 -5.75350464 68.65489929 -5.75531006 67.89266968 C-5.75972857 65.435503 -5.7567906 62.9784077 -5.75341797 60.52124023 C-5.75409101 58.82112616 -5.75506103 57.12101218 -5.75631714 55.42089844 C-5.75779411 51.85309943 -5.75563958 48.28532541 -5.75097656 44.7175293 C-5.74527927 40.1338553 -5.74855828 35.55023984 -5.75454903 30.96656799 C-5.75815466 27.45454463 -5.75701604 23.94253525 -5.75442123 20.43051147 C-5.75375197 18.7399393 -5.75458036 17.04936588 -5.75690079 15.35879517 C-5.75942736 13.00014866 -5.75558668 10.64159829 -5.75 8.28295898 C-5.75202423 7.57746918 -5.75404846 6.87197937 -5.75613403 6.14511108 C-5.73159908 0.58172252 -5.49960181 0.10029176 0 0 Z " fill="#0F1118" transform="translate(303.62060546875,740.791259765625)"/>
<path d="M0 0 C1.28267337 1.08760013 2.53203405 2.21539492 3.75 3.375 C4.45125 4.03628906 5.1525 4.69757812 5.875 5.37890625 C14.46062588 14.20126813 16.14398408 22.90117541 16.04296875 34.80078125 C15.90476782 40.22023218 15.90476782 40.22023218 14.75 41.375 C13.0007128 41.46865006 11.24763746 41.49244438 9.49584961 41.48852539 C8.37476303 41.48844986 7.25367645 41.48837433 6.09861755 41.48829651 C4.26896202 41.48055458 4.26896202 41.48055458 2.40234375 41.47265625 C1.16078018 41.4712413 -0.08078339 41.46982635 -1.35997009 41.46836853 C-4.66605491 41.46370591 -7.97207146 41.45471497 -11.27813721 41.44366455 C-14.6496115 41.43344827 -18.02109283 41.42887045 -21.39257812 41.42382812 C-28.01173775 41.41277395 -34.63086493 41.39601736 -41.25 41.375 C-40.16129862 43.47695007 -39.06387436 45.57350419 -37.9609375 47.66796875 C-37.04513916 49.42016724 -37.04513916 49.42016724 -36.11083984 51.20776367 C-34.09123666 54.64522262 -32.43107061 56.90643732 -28.8671875 58.6953125 C-19.78919679 61.05288024 -10.75880116 60.68245938 -2.4375 56.3125 C-1.52355469 55.74402344 -0.60960937 55.17554688 0.33203125 54.58984375 C2.75 53.375 2.75 53.375 4.9375 53.5546875 C8.78975584 55.29816536 10.4106369 58.53552287 11.9375 62.3125 C11.72694463 65.75157098 11.45149644 66.16503997 9.0625 68.4375 C7.6616492 69.46841738 6.21943362 70.44444187 4.75 71.375 C3.98042969 71.86613281 3.21085938 72.35726562 2.41796875 72.86328125 C-8.33995285 78.45488032 -22.53477384 78.21232934 -34.12109375 75.453125 C-37.0419437 74.30710999 -39.58911882 73.03036668 -42.25 71.375 C-42.98992188 70.94058594 -43.72984375 70.50617188 -44.4921875 70.05859375 C-52.590806 64.69516905 -58.46009961 55.56017155 -60.796875 46.1796875 C-62.83446501 33.56770794 -61.58165344 22.73482554 -54.640625 11.8515625 C-47.9260349 2.58050002 -39.10891293 -3.28757194 -27.81640625 -5.2734375 C-18.33404835 -6.57239064 -8.01569981 -5.66925723 0 0 Z " fill="#F87220" transform="translate(742.25,743.625)"/>
<path d="M0 0 C6.27 0 12.54 0 19 0 C19 14.85 19 29.7 19 45 C19.66 45 20.32 45 21 45 C21.2371875 44.28714844 21.474375 43.57429687 21.71875 42.83984375 C23.21460651 39.52433253 25.10312398 37.29691077 27.5 34.5625 C31.22220871 30.23290159 34.65841589 25.79808772 37.9375 21.125 C38.35257813 20.55064209 38.76765625 19.97628418 39.1953125 19.38452148 C41.40629285 16.32018775 43.48192633 13.23161531 45.44140625 10 C51.38882232 0.72405519 51.38882232 0.72405519 56.22753906 -0.61767578 C61.56506051 -1.25839228 66.70969967 -0.8552841 72 0 C73.67062089 1.67062089 73.12569043 3.70553826 73.13552856 5.93637085 C73.13249222 6.99460556 73.13249222 6.99460556 73.12939453 8.07421875 C73.13202301 9.18393539 73.13202301 9.18393539 73.13470459 10.31607056 C73.1391231 12.77323723 73.13618513 15.23033253 73.1328125 17.6875 C73.13348554 19.38761407 73.13445557 21.08772805 73.13571167 22.7878418 C73.13718864 26.35564081 73.13503411 29.92341483 73.13037109 33.49121094 C73.1246738 38.07488494 73.12795281 42.65850039 73.13394356 47.24217224 C73.13754919 50.75419561 73.13641057 54.26620498 73.13381577 57.77822876 C73.1331465 59.46880093 73.13397489 61.15937436 73.13629532 62.84994507 C73.13882189 65.20859157 73.13498121 67.56714195 73.12939453 69.92578125 C73.13141876 70.63127106 73.13344299 71.33676086 73.13552856 72.06362915 C73.11426271 76.88573729 73.11426271 76.88573729 72 78 C70.66956375 78.0983721 69.33406656 78.13078592 68 78.1328125 C67.195625 78.13410156 66.39125 78.13539063 65.5625 78.13671875 C64.716875 78.13285156 63.87125 78.12898437 63 78.125 C62.154375 78.12886719 61.30875 78.13273438 60.4375 78.13671875 C59.633125 78.13542969 58.82875 78.13414062 58 78.1328125 C57.2575 78.13168457 56.515 78.13055664 55.75 78.12939453 C54 78 54 78 53 77 C52.9072167 75.61839885 52.88252957 74.23211962 52.88647461 72.84741211 C52.88655014 71.96657455 52.88662567 71.085737 52.88670349 70.1782074 C52.89444542 68.74227989 52.89444542 68.74227989 52.90234375 67.27734375 C52.9037587 66.30213272 52.90517365 65.32692169 52.90663147 64.32215881 C52.91224867 61.19390857 52.92480407 58.06572877 52.9375 54.9375 C52.94251278 52.82226666 52.94707607 50.70703219 52.95117188 48.59179688 C52.96222369 43.39450704 52.97897854 38.19725855 53 33 C52.34 33 51.68 33 51 33 C50.69835937 33.98419922 50.69835937 33.98419922 50.390625 34.98828125 C48.43917624 39.21459302 45.64543721 42.56360413 42.75 46.1875 C41.48812066 47.78763379 40.22640696 49.38789821 38.96484375 50.98828125 C38.31370605 51.81021973 37.66256836 52.6321582 36.99169922 53.47900391 C33.74172296 57.59266594 30.52825243 61.73456995 27.3125 65.875 C26.72500977 66.62934326 26.13751953 67.38368652 25.53222656 68.16088867 C24.98147461 68.86834229 24.43072266 69.5757959 23.86328125 70.3046875 C23.38157471 70.92327637 22.89986816 71.54186523 22.40356445 72.17919922 C20.94053494 74.02355911 20.94053494 74.02355911 19.58325195 76.2043457 C18 78 18 78 16.02294922 78.4699707 C15.29092285 78.45538818 14.55889648 78.44080566 13.8046875 78.42578125 C12.60779297 78.41321289 12.60779297 78.41321289 11.38671875 78.40039062 C10.55785156 78.37138672 9.72898437 78.34238281 8.875 78.3125 C8.03839844 78.30283203 7.20179688 78.29316406 6.33984375 78.28320312 C0.16817197 78.16817197 0.16817197 78.16817197 -1 77 C-1.10025695 74.63238425 -1.13618935 72.29392927 -1.12939453 69.92578125 C-1.13114685 69.18597015 -1.13289917 68.44615906 -1.13470459 67.68392944 C-1.1391231 65.22676277 -1.13618513 62.76966747 -1.1328125 60.3125 C-1.13348554 58.61238593 -1.13445557 56.91227195 -1.13571167 55.2121582 C-1.13718864 51.64435919 -1.13503411 48.07658517 -1.13037109 44.50878906 C-1.1246738 39.92511506 -1.12795281 35.34149961 -1.13394356 30.75782776 C-1.13754919 27.24580439 -1.13641057 23.73379502 -1.13381577 20.22177124 C-1.1331465 18.53119907 -1.13397489 16.84062564 -1.13629532 15.15005493 C-1.13882189 12.79140843 -1.13498121 10.43285805 -1.12939453 8.07421875 C-1.13141876 7.36872894 -1.13344299 6.66323914 -1.13552856 5.93637085 C-1.11426271 1.11426271 -1.11426271 1.11426271 0 0 Z " fill="#F77120" transform="translate(786,741)"/>
<path d="M0 0 C5.38055879 4.2933531 7.97042438 8.99377763 9.89453125 15.57421875 C10.14176941 18.49092102 10.14176941 18.49092102 10.13745117 21.5637207 C10.14206612 23.30000481 10.14206612 23.30000481 10.14677429 25.07136536 C10.13599602 26.92322701 10.13599602 26.92322701 10.125 28.8125 C10.12454178 30.08900925 10.12408356 31.36551849 10.12361145 32.68070984 C10.12059598 35.37134312 10.11381209 38.06162983 10.1003418 40.75219727 C10.08326718 44.20689364 10.07953025 47.66144391 10.08028698 51.11617756 C10.07995066 54.41079958 10.07112275 57.70539073 10.0625 61 C10.06138718 62.24469559 10.06027435 63.48939117 10.05912781 64.77180481 C10.05274796 65.91356674 10.0463681 67.05532867 10.03979492 68.23168945 C10.03598312 69.24173538 10.03217133 70.25178131 10.02824402 71.29243469 C9.89453125 73.57421875 9.89453125 73.57421875 8.89453125 74.57421875 C7.55185712 74.66053749 6.20478803 74.68128348 4.859375 74.671875 C4.05048828 74.66865234 3.24160156 74.66542969 2.40820312 74.66210938 C1.55806641 74.65373047 0.70792969 74.64535156 -0.16796875 74.63671875 C-1.02197266 74.63220703 -1.87597656 74.62769531 -2.75585938 74.62304688 C-4.87242538 74.61122248 -6.9889556 74.59328644 -9.10546875 74.57421875 C-9.10546875 73.58421875 -9.10546875 72.59421875 -9.10546875 71.57421875 C-9.60691406 71.86296875 -10.10835937 72.15171875 -10.625 72.44921875 C-16.67665727 75.41834532 -22.16040964 75.98612277 -28.79296875 76.01171875 C-29.60032471 76.02138672 -30.40768066 76.03105469 -31.23950195 76.04101562 C-39.5862981 75.92445702 -45.27010977 73.15622214 -51.37109375 67.43359375 C-56.86938367 61.53903068 -56.75494944 55.026369 -56.578125 47.24609375 C-55.75949455 40.88648527 -53.08142083 36.9236546 -48.1015625 32.9921875 C-36.31737329 25.23295855 -22.67959096 26.40524627 -9.10546875 26.57421875 C-9.30920328 25.00819964 -9.54479966 23.44631348 -9.79296875 21.88671875 C-9.92058594 21.01660156 -10.04820312 20.14648438 -10.1796875 19.25 C-11.47437319 15.50797595 -12.90612021 13.92374033 -16.10546875 11.57421875 C-19.23294755 10.88140639 -22.22708305 10.91984111 -25.41796875 11.01171875 C-26.64290039 10.9952832 -26.64290039 10.9952832 -27.89257812 10.97851562 C-33.17033229 11.04159635 -36.86208821 12.03529548 -41.42138672 14.70678711 C-43.10546875 15.57421875 -43.10546875 15.57421875 -45.91796875 15.69921875 C-49.18913768 14.0169033 -49.86613864 11.96606959 -51.10546875 8.57421875 C-51.390625 6.06640625 -51.390625 6.06640625 -51.10546875 3.57421875 C-40.17392731 -9.67798512 -13.10638003 -8.87537794 0 0 Z " fill="#10121A" transform="translate(254.10546875,744.42578125)"/>
<path d="M0 0 C1.15790039 -0.00315216 2.31580078 -0.00630432 3.50878906 -0.009552 C4.76916992 -0.00752777 6.02955078 -0.00550354 7.328125 -0.00341797 C8.61170898 -0.00437469 9.89529297 -0.00533142 11.21777344 -0.00631714 C13.93816324 -0.00779378 16.65852025 -0.00564066 19.37890625 -0.00097656 C22.87297169 0.00472073 26.36696033 0.00144154 29.86102295 -0.00454903 C33.18339653 -0.00902301 36.50574923 -0.00589432 39.828125 -0.00341797 C41.08850586 -0.0054422 42.34888672 -0.00746643 43.64746094 -0.009552 C44.80536133 -0.00639984 45.96326172 -0.00324768 47.15625 0 C48.18137695 0.00079559 49.20650391 0.00159119 50.26269531 0.00241089 C52.578125 0.12939453 52.578125 0.12939453 53.578125 1.12939453 C53.67307233 3.50240322 53.70371819 5.84618156 53.69165039 8.21948242 C53.69179642 8.96089981 53.69194244 9.7023172 53.6920929 10.46620178 C53.69139365 12.92818074 53.68360074 15.39008497 53.67578125 17.85205078 C53.67391711 19.55455992 53.67249319 21.2570696 53.67149353 22.95957947 C53.66766802 27.44932526 53.65783747 31.93903891 53.64678955 36.42877197 C53.63657613 41.00670944 53.63199606 45.58465209 53.62695312 50.16259766 C53.61621522 59.1515441 53.59913841 68.14046665 53.578125 77.12939453 C50.28134612 78.77778397 46.63496456 78.27212191 43.015625 78.25439453 C42.22220703 78.25826172 41.42878906 78.26212891 40.61132812 78.26611328 C34.70475567 78.2560252 34.70475567 78.2560252 33.578125 77.12939453 C33.48421204 75.22695691 33.46068842 73.32100994 33.46459961 71.41625977 C33.46467514 70.19506943 33.46475067 68.97387909 33.46482849 67.71568298 C33.46993589 66.37311768 33.47515189 65.03055278 33.48046875 63.68798828 C33.48233301 62.32178295 33.48375687 60.95557696 33.48475647 59.58937073 C33.48858106 55.98737758 33.49841083 52.38542453 33.50946045 48.78344727 C33.51967584 45.11035708 33.52425436 41.43726044 33.52929688 37.76416016 C33.54003316 30.55255119 33.55762947 23.34098358 33.578125 16.12939453 C26.648125 16.12939453 19.718125 16.12939453 12.578125 16.12939453 C12.660625 18.06814453 12.743125 20.00689453 12.828125 22.00439453 C13.01681592 38.15521605 11.53633635 57.80502723 1.578125 71.12939453 C-3.43311398 76.06813819 -7.45856843 78.27114258 -14.484375 78.25439453 C-16.11052734 78.25826172 -16.11052734 78.25826172 -17.76953125 78.26220703 C-20.421875 78.12939453 -20.421875 78.12939453 -21.421875 77.12939453 C-22.02459658 72.38218535 -22.19312846 67.86084306 -21.421875 63.12939453 C-19.56857266 61.18804932 -17.88272968 60.41449864 -15.4609375 59.29345703 C-11.514877 57.04072518 -10.64176536 53.29653124 -9.421875 49.12939453 C-7.3439542 38.56465021 -7.04387804 28.04213632 -6.859375 17.31689453 C-6.81533818 14.99593728 -6.76882748 12.67511149 -6.71656799 10.35432434 C-6.68474269 8.92546324 -6.6578121 7.49648273 -6.63633728 6.06742859 C-6.50781421 0.01331538 -5.92190334 0.00459594 0 0 Z " fill="#F7711F" transform="translate(905.421875,740.87060546875)"/>
<path d="M0 0 C0.80373047 -0.020625 1.60746094 -0.04125 2.43554688 -0.0625 C11.9200915 -0.12354293 18.88250112 2.41895213 25.734375 9.03125 C31.31758512 15.3737767 32.57657741 22.05811314 32.33203125 30.41796875 C30.56049767 40.9505411 24.36499685 50.95791965 16.6875 58.25 C15.92179687 59.03503906 15.15609375 59.82007813 14.3671875 60.62890625 C4.66599717 70.11290575 -7.0452493 77.14048812 -20.3125 80.25 C-20.3125 74.97 -20.3125 69.69 -20.3125 64.25 C-18.188125 63.074375 -16.06375 61.89875 -13.875 60.6875 C-1.97079588 53.93504013 9.49122343 45.69439064 14.375 32.375 C14.88083492 28.93532257 15.30028571 25.68159995 14.6875 22.25 C11.98269518 18.71872704 10.00444219 17.05539966 5.6875 16.25 C-13.76432411 13.95046265 -34.00990147 24.82890001 -48.80859375 36.39453125 C-57.18986203 43.14975517 -64.71088074 50.24903761 -71.27734375 58.83984375 C-74.25618745 62.36757228 -76.73923455 64.99314033 -81.375 65.75 C-84.3125 65.25 -84.3125 65.25 -86.6875 63.6875 C-88.9253408 60.33073881 -88.67400577 58.2349706 -88.3125 54.25 C-74.59654861 28.65381799 -43.90422144 10.55790896 -17.29467773 1.84277344 C-11.57861927 0.13337697 -5.91570394 0.03741157 0 0 Z " fill="#10121A" transform="translate(1053.3125,426.75)"/>
<path d="M0 0 C0.72703125 0.39703125 1.4540625 0.7940625 2.203125 1.203125 C2.99203125 1.60015625 3.7809375 1.9971875 4.59375 2.40625 C9.847429 5.3086321 9.847429 5.3086321 11.12890625 8.53125 C11.23013758 12.17557786 9.94734345 13.64494283 7.765625 16.515625 C7.10691406 17.39863281 6.44820312 18.28164063 5.76953125 19.19140625 C5.25261719 19.85527344 4.73570313 20.51914062 4.203125 21.203125 C0.5729309 20.64560828 -1.93152762 19.73441997 -4.984375 17.703125 C-11.44459889 13.45395288 -17.07214024 13.34574603 -24.796875 14.203125 C-32.54535 17.18584762 -36.23495241 23.07927983 -39.796875 30.203125 C-40.52748394 38.44343567 -40.24302943 46.0348352 -35.796875 53.203125 C-31.89682009 57.55562248 -27.58811747 60.86916022 -21.6953125 61.57421875 C-13.53765115 61.72796625 -7.61298901 60.85047546 -0.796875 56.203125 C-0.136875 55.543125 0.523125 54.883125 1.203125 54.203125 C3.8853589 54.39978573 4.99748686 55.0053427 6.94140625 56.875 C11.12865622 62.40258556 11.12865622 62.40258556 11.453125 65.890625 C7.83708767 72.58029407 1.04944654 74.8984227 -5.796875 77.203125 C-15.22894153 79.89817687 -28.88714817 79.94505608 -37.69921875 75.53125 C-49.53202435 68.03934329 -56.98871149 59.55940887 -60.41796875 45.69140625 C-62.4037793 32.65056787 -59.38965784 21.84738085 -51.796875 11.203125 C-40.07543946 -3.63227588 -17.05184409 -7.81084471 0 0 Z " fill="#F8711E" transform="translate(1044.796875,741.796875)"/>
<path d="M0 0 C5.00056798 3.46870384 5.00056798 3.46870384 6.453125 6.3984375 C6.57194097 9.65399502 5.01459685 11.22793337 3.09375 13.7890625 C2.43503906 14.68109375 1.77632812 15.573125 1.09765625 16.4921875 C0.58074219 17.16765625 0.06382812 17.843125 -0.46875 18.5390625 C-4.09089166 17.98375158 -6.56138775 17.08442057 -9.59375 15.0390625 C-15.38735986 11.16162711 -20.61645674 10.88199328 -27.46875 11.5390625 C-33.73479288 13.31408489 -37.86967768 17.23575656 -41.46875 22.5390625 C-45.00580835 28.90576753 -45.57247022 34.418507 -43.70703125 41.3828125 C-41.60537579 47.56317481 -39.46182956 52.33363545 -34.09375 56.2890625 C-28.14248169 59.12299979 -20.34540456 59.79400516 -14.03125 57.75 C-10.76944128 56.34441795 -7.95749347 54.92213171 -5.15625 52.7265625 C-3.46875 51.5390625 -3.46875 51.5390625 -1.5703125 51.73046875 C2.42125434 53.26625748 4.49078748 56.92531407 6.53125 60.5390625 C6.90625 63.1640625 6.90625 63.1640625 5.53125 65.5390625 C3.08789549 67.94473031 0.45167102 69.75354546 -2.46875 71.5390625 C-3.14550781 71.95800781 -3.82226562 72.37695312 -4.51953125 72.80859375 C-14.01387442 77.5810611 -27.94839836 77.05315974 -38.09375 74.4765625 C-48.72205882 70.47686324 -56.73889065 62.73302509 -61.609375 52.62890625 C-65.46380298 43.2556382 -66.3131389 31.47062974 -63.40625 21.6015625 C-62.56640625 19.61328125 -62.56640625 19.61328125 -61.46875 17.5390625 C-60.99308594 16.63800781 -60.51742187 15.73695313 -60.02734375 14.80859375 C-54.5399168 5.37429359 -46.28492911 -1.94120092 -35.61254883 -4.99145508 C-23.87818223 -7.56122925 -10.30660039 -6.09915909 0 0 Z " fill="#F87220" transform="translate(653.46875,744.4609375)"/>
<path d="M0 0 C1.91703735 -0.00472824 1.91703735 -0.00472824 3.87280273 -0.009552 C5.27848342 -0.00776222 6.6841638 -0.00571127 8.08984375 -0.00341797 C9.52091488 -0.00409105 10.9519859 -0.00506111 12.38305664 -0.00631714 C15.38591599 -0.00779391 18.38874565 -0.00564023 21.39160156 -0.00097656 C25.24886946 0.00472073 29.10606779 0.00144161 32.96333313 -0.00454903 C35.91947966 -0.00815521 38.87560958 -0.00701579 41.83175659 -0.00442123 C43.25438444 -0.00375212 44.67701378 -0.00457984 46.09963989 -0.00690079 C48.08465549 -0.0094282 50.06967634 -0.00489589 52.0546875 0 C53.75226196 0.00119339 53.75226196 0.00119339 55.48413086 0.00241089 C58.02734375 0.12939453 58.02734375 0.12939453 59.02734375 1.12939453 C59.12651945 3.27333972 59.15704525 5.42066185 59.15234375 7.56689453 C59.15621094 9.32839844 59.15621094 9.32839844 59.16015625 11.12548828 C59.02734375 14.12939453 59.02734375 14.12939453 58.02734375 16.12939453 C50.76734375 16.12939453 43.50734375 16.12939453 36.02734375 16.12939453 C36.03258057 17.97202881 36.03781738 19.81466309 36.04321289 21.71313477 C36.05931081 27.78802621 36.07081616 33.86291262 36.07915592 39.93781948 C36.08438383 43.62253951 36.0914798 47.30723656 36.1027832 50.99194336 C36.11361537 54.54510284 36.11962128 58.09824016 36.12222099 61.65141487 C36.12407465 63.00985119 36.12769413 64.36828625 36.13307381 65.72671318 C36.1402885 67.62321677 36.14075184 69.51974246 36.14086914 71.41625977 C36.14308975 72.4976976 36.14531036 73.57913544 36.14759827 74.69334412 C36.02734375 77.12939453 36.02734375 77.12939453 35.02734375 78.12939453 C33.6969075 78.22776663 32.36141031 78.26018045 31.02734375 78.26220703 C30.22296875 78.26349609 29.41859375 78.26478516 28.58984375 78.26611328 C27.74421875 78.26224609 26.89859375 78.25837891 26.02734375 78.25439453 C25.18171875 78.25826172 24.33609375 78.26212891 23.46484375 78.26611328 C22.66046875 78.26482422 21.85609375 78.26353516 21.02734375 78.26220703 C20.28484375 78.2610791 19.54234375 78.25995117 18.77734375 78.25878906 C17.02734375 78.12939453 17.02734375 78.12939453 16.02734375 77.12939453 C15.93343079 75.22695691 15.90990717 73.32100994 15.91381836 71.41625977 C15.91389389 70.19506943 15.91396942 68.97387909 15.91404724 67.71568298 C15.91915464 66.37311768 15.92437064 65.03055278 15.9296875 63.68798828 C15.93155176 62.32178295 15.93297562 60.95557696 15.93397522 59.58937073 C15.93779981 55.98737758 15.94762958 52.38542453 15.9586792 48.78344727 C15.96889459 45.11035708 15.97347311 41.43726044 15.97851562 37.76416016 C15.98925191 30.55255119 16.00684822 23.34098358 16.02734375 16.12939453 C8.76734375 16.12939453 1.50734375 16.12939453 -5.97265625 16.12939453 C-7.40582523 13.26305658 -7.10465986 10.75703952 -7.09765625 7.56689453 C-7.10023438 6.38998047 -7.1028125 5.21306641 -7.10546875 4.00048828 C-6.86971356 -1.0959842 -4.55648631 0.0032032 0 0 Z " fill="#15171F" transform="translate(398.97265625,740.87060546875)"/>
<path d="M0 0 C5.1213572 3.6732493 8.29400494 8.69237748 10.265625 14.625 C11.32916941 23.47962551 9.93970831 30.33060467 4.875 37.62890625 C1.03815459 42.46535086 -2.8143153 45.21849517 -9.1015625 46.09375 C-16.66746148 46.16115222 -22.03499831 45.86787322 -27.734375 40.625 C-33.69435707 34.66501793 -35.8578385 28.93649938 -36.171875 20.625 C-35.97509766 13.53207151 -33.95259064 9.12760226 -29.296875 3.875 C-20.08394164 -4.2144049 -11.23761528 -6.21956066 0 0 Z " fill="#F8F9F9" transform="translate(534.734375,758.375)"/>
<path d="M0 0 C6.14076451 0 6.14076451 0 8.90234375 2.3125 C10.4375 4.5 10.4375 4.5 11.6640625 6.71484375 C12.74675262 8.89546592 12.74675262 8.89546592 15.8125 9.5625 C20.689762 9.95523833 25.51413755 10.16756815 29.8125 7.5625 C31.05424796 5.6623823 31.05424796 5.6623823 31.8125 3.5625 C32.4725 2.5725 33.1325 1.5825 33.8125 0.5625 C36.59765625 0.234375 36.59765625 0.234375 39.875 0.3125 C40.95910156 0.32796875 42.04320312 0.3434375 43.16015625 0.359375 C45.8125 0.5625 45.8125 0.5625 46.8125 1.5625 C47.38085838 7.24608378 46.37675401 11.1590672 42.8125 15.5625 C35.89490195 22.53670687 31.69280285 25.78587984 21.75 25.875 C13.2414152 25.89926403 6.65890668 24.73996639 -0.0625 19.1875 C-1.114375 17.888125 -1.114375 17.888125 -2.1875 16.5625 C-3.30125 15.20125 -3.30125 15.20125 -4.4375 13.8125 C-6.60359741 9.78974767 -7.23546018 6.11871734 -7.1875 1.5625 C-5.31820994 -0.30679006 -2.51512053 0.13357137 0 0 Z " fill="#F87221" transform="translate(804.1875,707.4375)"/>
<path d="M0 0 C-0.61277612 2.96175123 -1.25372522 4.38058783 -3 7 C-3.46405377 11.66507428 -3.46405377 11.66507428 -1.875 15.9375 C1.01644441 17.57598516 2.71157811 17.50591106 6 17 C8.51629258 15.54479465 10.76381991 13.85245688 13 12 C13.63497437 18.09575398 13.08368372 22.28653418 9.47265625 27.3359375 C5.95160812 31.31462849 2.17781285 32.19822772 -2.9375 32.5625 C-7.77862316 32.43106679 -10.20932694 30.93082353 -13.625 27.60546875 C-17.81785869 22.70982977 -17.47523044 18.62740187 -17.37890625 12.3984375 C-16.83335411 7.50534103 -15.80703855 6.06218318 -12 3 C-7.85065002 0.35147873 -4.89849663 -0.34989262 0 0 Z " fill="#FBF7F4" transform="translate(969,474)"/>
<path d="M0 0 C3.33422438 -0.10872471 6.66484659 -0.18766068 10 -0.25 C10.93457031 -0.28351562 11.86914062 -0.31703125 12.83203125 -0.3515625 C19.35468067 -0.44278837 23.4415019 0.52593869 29 4 C30.60964787 7.21929573 30.60686242 10.51887712 30 14 C27.46546343 17.21954645 25.88702695 18.70432435 22 20 C20.29983156 20.08178114 18.59663703 20.10749501 16.89453125 20.09765625 C15.91162109 20.09443359 14.92871094 20.09121094 13.91601562 20.08789062 C12.89185547 20.07951172 11.86769531 20.07113281 10.8125 20.0625 C9.77673828 20.05798828 8.74097656 20.05347656 7.67382812 20.04882812 C5.1158608 20.03704026 2.55792314 20.01910482 0 20 C0 13.4 0 6.8 0 0 Z " fill="#F3F3F3" transform="translate(319,785)"/>
<path d="M0 0 C1.26650391 0.00966797 1.26650391 0.00966797 2.55859375 0.01953125 C3.43128906 0.03628906 4.30398437 0.05304687 5.203125 0.0703125 C6.53537109 0.08384766 6.53537109 0.08384766 7.89453125 0.09765625 C10.08084511 0.121165 12.26701984 0.15703439 14.453125 0.1953125 C14.453125 5.8053125 14.453125 11.4153125 14.453125 17.1953125 C2.36703228 22.02974959 2.36703228 22.02974959 -4.546875 21.1953125 C-8.19043147 19.57595407 -10.67333105 17.74518524 -12.546875 14.1953125 C-13.07482993 10.0470952 -13.02300645 7.96052376 -10.796875 4.3828125 C-7.37180647 1.05288476 -4.76510258 -0.06439328 0 0 Z " fill="#F8F8F8" transform="translate(229.546875,784.8046875)"/>
<path d="M0 0 C3.34194413 2.33158893 5.43472996 4.46366251 7.6875 7.875 C8.1825 11.835 8.1825 11.835 8.6875 15.875 C-3.1925 15.875 -15.0725 15.875 -27.3125 15.875 C-26.23354299 9.40125795 -24.78157582 6.45529716 -20.3125 1.875 C-13.97083253 -2.0275646 -6.97477551 -2.36879168 0 0 Z " fill="#FDF8F4" transform="translate(729.3125,756.125)"/>
<path d="M0 0 C3.75076665 -0.10784952 7.49843949 -0.18724988 11.25 -0.25 C12.31347656 -0.28351562 13.37695312 -0.31703125 14.47265625 -0.3515625 C15.49746094 -0.36445312 16.52226562 -0.37734375 17.578125 -0.390625 C18.99206543 -0.4220459 18.99206543 -0.4220459 20.43457031 -0.45410156 C23.78657772 0.13923054 24.94271041 1.33727608 27 4 C27.61447856 8.22454007 27.47763281 10.24237555 25.1875 13.875 C22.03594616 16.93650945 19.54285567 17.12447679 15.33203125 17.09765625 C14.43935547 17.09443359 13.54667969 17.09121094 12.62695312 17.08789062 C11.23379883 17.07532227 11.23379883 17.07532227 9.8125 17.0625 C8.87212891 17.05798828 7.93175781 17.05347656 6.96289062 17.04882812 C4.64189992 17.03704645 2.32094193 17.01911114 0 17 C0 11.39 0 5.78 0 0 Z " fill="#F8F8F8" transform="translate(319,755)"/>
<path d="M0 0 C0.66 0 1.32 0 2 0 C2 24.75 2 49.5 2 75 C17.18 75 32.36 75 48 75 C48 75.66 48 76.32 48 77 C41.3247966 77.02526945 34.64960543 77.04283268 27.97436523 77.05493164 C25.70157409 77.05997325 23.4287862 77.06680637 21.15600586 77.07543945 C17.89696449 77.08751261 14.63796583 77.09322987 11.37890625 77.09765625 C10.35599991 77.10281754 9.33309357 77.10797882 8.27919006 77.11329651 C7.33829025 77.11337204 6.39739044 77.11344757 5.42797852 77.11352539 C4.59524918 77.115746 3.76251984 77.11796661 2.90455627 77.12025452 C1 77 1 77 0 76 C-0.09494733 73.62699131 -0.12559319 71.28321297 -0.11352539 68.90991211 C-0.11367142 68.16849472 -0.11381744 67.42707733 -0.1139679 66.66319275 C-0.11326865 64.20121379 -0.10547574 61.73930957 -0.09765625 59.27734375 C-0.09579211 57.57483461 -0.09436819 55.87232493 -0.09336853 54.16981506 C-0.08954302 49.68006927 -0.07971247 45.19035562 -0.06866455 40.70062256 C-0.05845113 36.12268509 -0.05387106 31.54474244 -0.04882812 26.96679688 C-0.03809022 17.97785043 -0.02101341 8.98892788 0 0 Z " fill="#37373C" transform="translate(298,742)"/>
<path d="M0 0 C0 0.99 0 1.98 0 3 C1.98 3 3.96 3 6 3 C6 3.33 6 3.66 6 4 C1.46557876 4.43261669 -3.06932392 4.85963912 -7.60473633 5.28173828 C-9.14393939 5.42575163 -10.68300633 5.57122824 -12.22192383 5.71826172 C-20.15727123 6.47548085 -28.01772896 7.21794597 -36 7 C-33.62315863 4.62315863 -32.53304787 4.54703332 -29.2734375 4 C-28.32339844 3.835 -27.37335937 3.67 -26.39453125 3.5 C-24.89986328 3.2525 -24.89986328 3.2525 -23.375 3 C-21.42404091 2.66924137 -19.47350972 2.33594784 -17.5234375 2 C-16.11336426 1.75830078 -16.11336426 1.75830078 -14.67480469 1.51171875 C-12.25312661 1.04842583 -9.91417037 0.46876532 -7.5390625 -0.1875 C-4.17629638 -0.95952578 -3.11621524 -0.96488905 0 0 Z " fill="#F7711F" transform="translate(703,678)"/>
<path d="M0 0 C-1.20248407 2.50517516 -2.5118236 4.85854281 -3.9375 7.25 C-6.1213428 11.02060498 -7.55892102 14.89292492 -9 19 C-9.66 19 -10.32 19 -11 19 C-12.5691349 15.86173021 -12.34240181 13.46408643 -12 10 C-9.8828125 7.12890625 -9.8828125 7.12890625 -7.125 4.5625 C-6.22007812 3.69753906 -5.31515625 2.83257813 -4.3828125 1.94140625 C-2 0 -2 0 0 0 Z " fill="#101117" transform="translate(301,664)"/>
<path d="M0 0 C2.33094534 0.3496418 4.66404762 0.68554487 7 1 C7 1.33 7 1.66 7 2 C3.85495307 2.34103465 0.70886583 2.67137463 -2.4375 3 C-3.75524414 3.14308594 -3.75524414 3.14308594 -5.09960938 3.2890625 C-10.76758855 3.87468396 -16.30188968 4.09274645 -22 4 C-19.16397759 1.16397759 -15.93513292 0.99697521 -12.125 0.3125 C-11.40441406 0.17005859 -10.68382812 0.02761719 -9.94140625 -0.11914062 C-6.33423766 -0.78676575 -3.48528851 -1.24587236 0 0 Z " fill="#FA9A60" transform="translate(689,681)"/>
<path d="M0 0 C0 0.33 0 0.66 0 1 C-1.60681641 1.07347656 -1.60681641 1.07347656 -3.24609375 1.1484375 C-4.64325639 1.22345294 -6.0403905 1.2990013 -7.4375 1.375 C-8.14455078 1.4059375 -8.85160156 1.436875 -9.58007812 1.46875 C-11.39239188 1.57280629 -13.19817988 1.77919892 -15 2 C-15.33 2.66 -15.66 3.32 -16 4 C-20.29 3.34 -24.58 2.68 -29 2 C-29 1.67 -29 1.34 -29 1 C-19.31337984 -0.04518445 -9.72654773 -0.10371911 0 0 Z " fill="#45474D" transform="translate(436,534)"/>
<path d="M0 0 C5.61 0 11.22 0 17 0 C17 0.33 17 0.66 17 1 C13.58518736 1.53350857 10.16796104 2.04958186 6.75 2.5625 C5.29787109 2.78969727 5.29787109 2.78969727 3.81640625 3.02148438 C2.88183594 3.16005859 1.94726562 3.29863281 0.984375 3.44140625 C0.12553711 3.57232666 -0.73330078 3.70324707 -1.61816406 3.83813477 C-4.01042114 4.0007082 -5.72802578 3.71976511 -8 3 C-7.34 3 -6.68 3 -6 3 C-6 2.34 -6 1.68 -6 1 C-3.03 1.495 -3.03 1.495 0 2 C0 1.34 0 0.68 0 0 Z " fill="#4A4C51" transform="translate(369,564)"/>
<path d="M0 0 C0.33 0 0.66 0 1 0 C1.02903577 3.10414702 1.0468107 6.20825909 1.0625 9.3125 C1.07087891 10.19357422 1.07925781 11.07464844 1.08789062 11.98242188 C1.09111328 12.82998047 1.09433594 13.67753906 1.09765625 14.55078125 C1.10289307 15.33106689 1.10812988 16.11135254 1.11352539 16.9152832 C1 19 1 19 0 22 C-0.66 22 -1.32 22 -2 22 C-2 20.35 -2 18.7 -2 17 C-1.34 17 -0.68 17 0 17 C-0.12568359 16.1646875 -0.12568359 16.1646875 -0.25390625 15.3125 C-0.97056584 9.94208892 -0.87482711 5.34616568 0 0 Z " fill="#38393F" transform="translate(563,770)"/>
<path d="M0 0 C0.33 0.66 0.66 1.32 1 2 C1.66 2.33 2.32 2.66 3 3 C2.443125 3.20625 1.88625 3.4125 1.3125 3.625 C-1.28278158 4.98938378 -1.28278158 4.98938378 -3.5 8.0625 C-6.01895394 11.02227088 -6.45428833 11.39151982 -10 12 C-3.84965831 3.55353075 -3.84965831 3.55353075 0 0 Z " fill="#D47232" transform="translate(992,473)"/>
<path d="M0 0 C0.66 0.33 1.32 0.66 2 1 C-3.19826965 7.83201154 -3.19826965 7.83201154 -8 9 C-8.66 8.67 -9.32 8.34 -10 8 C-6.7 5.36 -3.4 2.72 0 0 Z " fill="#1B1D24" transform="translate(503,496)"/>
<path d="M0 0 C0.66 0.66 1.32 1.32 2 2 C-1.3 4.64 -4.6 7.28 -8 10 C-8.66 9.67 -9.32 9.34 -10 9 C-8.71142987 7.68445979 -7.41904109 6.37265903 -6.125 5.0625 C-5.04605469 3.96615234 -5.04605469 3.96615234 -3.9453125 2.84765625 C-2 1 -2 1 0 0 Z " fill="#24262C" transform="translate(231,593)"/>
<path d="M0 0 C-2.65017018 1.41973403 -5.06645502 2.35828704 -8 3 C-9.11375 3.2784375 -9.11375 3.2784375 -10.25 3.5625 C-10.8275 3.706875 -11.405 3.85125 -12 4 C-12 3.34 -12 2.68 -12 2 C-12.66 1.67 -13.32 1.34 -14 1 C-8.83430559 -0.79217969 -5.48946087 -1.12029814 0 0 Z " fill="#202227" transform="translate(326,549)"/>
<path d="M0 0 C0.66 0.33 1.32 0.66 2 1 C0.79618552 3.49361571 -0.45428722 5.68143083 -2 8 C-2.99 7.67 -3.98 7.34 -5 7 C-3.47793991 4.37098712 -2.15634036 2.15634036 0 0 Z " fill="#21232A" transform="translate(493,748)"/>
<path d="M0 0 C1.65322266 0.01740234 1.65322266 0.01740234 3.33984375 0.03515625 C4.99693359 0.04869141 4.99693359 0.04869141 6.6875 0.0625 C7.54214844 0.07410156 8.39679687 0.08570313 9.27734375 0.09765625 C9.27734375 0.42765625 9.27734375 0.75765625 9.27734375 1.09765625 C8.601875 1.1234375 7.92640625 1.14921875 7.23046875 1.17578125 C1.51970443 1.44087353 1.51970443 1.44087353 -3.34765625 4.16015625 C-3.80140625 4.79953125 -4.25515625 5.43890625 -4.72265625 6.09765625 C-3.65171431 0.13097971 -3.65171431 0.13097971 0 0 Z " fill="#F99051" transform="translate(840.72265625,707.90234375)"/>
<path d="M0 0 C3.26566506 4.89849759 3.09311493 8.31998909 3 14 C1.51171875 12.85546875 1.51171875 12.85546875 0 11 C-0.29296875 8.30078125 -0.29296875 8.30078125 -0.1875 5.3125 C-0.16042969 4.31863281 -0.13335937 3.32476563 -0.10546875 2.30078125 C-0.07066406 1.54152344 -0.03585937 0.78226563 0 0 Z " fill="#4A4B51" transform="translate(367,787)"/>
<path d="M0 0 C2 2 2 2 2.1953125 3.9453125 C2.13020833 5.96354167 2.06510417 7.98177083 2 10 C1.01 9.34 0.02 8.68 -1 8 C-1.25 4.4375 -1.25 4.4375 -1 1 C-0.67 0.67 -0.34 0.34 0 0 Z " fill="#323338" transform="translate(966,480)"/>
<path d="M0 0 C0.66 0.33 1.32 0.66 2 1 C-0.64 3.97 -3.28 6.94 -6 10 C-6.33 9.01 -6.66 8.02 -7 7 C-4.69 4.69 -2.38 2.38 0 0 Z " fill="#F5722A" transform="translate(898,474)"/>
<path d="M0 0 C1.32 0.33 2.64 0.66 4 1 C1.69 2.65 -0.62 4.3 -3 6 C-3.66 5.34 -4.32 4.68 -5 4 C-2.75 1.9375 -2.75 1.9375 0 0 Z " fill="#1A1B22" transform="translate(515,487)"/>
<path d="M0 0 C0.66 1.32 1.32 2.64 2 4 C2.99 3.67 3.98 3.34 5 3 C4.34 4.98 3.68 6.96 3 9 C2.34 9 1.68 9 1 9 C-0.4783226 6.04335481 -0.06032783 3.25770263 0 0 Z " fill="#313035" transform="translate(289,674)"/>
<path d="M0 0 C1.8871875 0.0309375 1.8871875 0.0309375 3.8125 0.0625 C0.91157498 1.99645001 -0.08424737 2.36381941 -3.375 2.6875 C-4.633125 2.81125 -5.89125 2.935 -7.1875 3.0625 C-7.1875 2.4025 -7.1875 1.7425 -7.1875 1.0625 C-4.43671116 0.14557039 -2.82801087 -0.04636083 0 0 Z " fill="#F7762F" transform="translate(725.1875,671.9375)"/>
<path d="M0 0 C0 0.33 0 0.66 0 1 C-1.98 1 -3.96 1 -6 1 C-6.33 1.99 -6.66 2.98 -7 4 C-10 3 -10 3 -13 1 C-8.59085217 -0.10228696 -4.51617599 -0.07654536 0 0 Z " fill="#515157" transform="translate(358,541)"/>
<path d="M0 0 C-3.20380017 2.13586678 -4.01939967 2.23132175 -7.6875 2.125 C-8.89986328 2.09792969 -8.89986328 2.09792969 -10.13671875 2.0703125 C-11.05904297 2.03550781 -11.05904297 2.03550781 -12 2 C-7.89783794 -0.73477471 -4.73617773 -1.57872591 0 0 Z " fill="#F58F55" transform="translate(703,678)"/>
<path d="M0 0 C-0.99 0 -1.98 0 -3 0 C-3.33 0.99 -3.66 1.98 -4 3 C-6.97 2.505 -6.97 2.505 -10 2 C-6.19832777 -0.53444815 -4.31588991 -1.33941411 0 0 Z " fill="#2C2E34" transform="translate(225,740)"/>
<path d="M0 0 C0.6875 1.6875 0.6875 1.6875 1 4 C-0.3125 6.75 -0.3125 6.75 -2 9 C-2.66 9 -3.32 9 -4 9 C-2.94124926 5.59687262 -1.99097846 2.98646769 0 0 Z " fill="#26272D" transform="translate(300,627)"/>
<path d="M0 0 C-1.15173355 2.46800047 -2.04783565 4.04783565 -4 6 C-4.99 5.67 -5.98 5.34 -7 5 C-2.25 0 -2.25 0 0 0 Z " fill="#3C3D40" transform="translate(301,664)"/>
<path d="M0 0 C0 0.33 0 0.66 0 1 C-1.65 1 -3.3 1 -5 1 C-5 1.66 -5 2.32 -5 3 C-7.31 2.67 -9.62 2.34 -12 2 C-8.09971775 -0.60018816 -4.52565431 -0.15085514 0 0 Z " fill="#5C5C61" transform="translate(379,538)"/>
</svg>
